HIERARCHY
ROOT Hips
{
  OFFSET 0 0 0
  CHANNELS 6 Xposition Yposition Zposition Zrotation Yrotation Xrotation
  JOINT LeftThigh
  {
    OFFSET 8.409438 0 -5.917753
    CHANNELS 3 Zrotation Yrotation Xrotation
    JOINT LeftLeg
    {
      OFFSET 0 0 -42.358652
      CHANNELS 3 Zrotation Yrotation Xrotation
      JOINT LeftFoot
      {
        OFFSET 0 0 -39.357303
        CHANNELS 3 Zrotation Yrotation Xrotation
      }
    }
  }
  JOINT RightThigh
  {
    OFFSET -8.409438 0 -5.917753
    CHANNELS 3 Zrotation Yrotation Xrotation
    JOINT RightLeg
    {
      OFFSET 0 0 -42.358652
      CHANNELS 3 Zrotation Yrotation Xrotation
      JOINT RightFoot
      {
        OFFSET 0 0 -39.357303
        CHANNELS 3 Zrotation Yrotation Xrotation
      }
    }
  }
  JOINT SpineLow
  {
    OFFSET 0 0 4.719101
    CHANNELS 3 Zrotation Yrotation Xrotation
    JOINT SpineMid
    {
      OFFSET 0 0 12.899191
      CHANNELS 3 Zrotation Yrotation Xrotation
      JOINT Chest
      {
        OFFSET 0 0 12.899191
        CHANNELS 3 Zrotation Yrotation Xrotation
        JOINT LeftShoulder
        {
          OFFSET 7.550562 1.41573 9.438202
          CHANNELS 3 Zrotation Yrotation Xrotation
          JOINT LeftArm
          {
            OFFSET 9.155056 0 4.247191
            CHANNELS 3 Zrotation Yrotation Xrotation
            JOINT LeftForearm
            {
              OFFSET 0 0 25.771955
              CHANNELS 3 Zrotation Yrotation Xrotation
              JOINT LeftHand
              {
                OFFSET 0 0 25.197169
                CHANNELS 3 Zrotation Yrotation Xrotation
              }
            }
          }
        }
        JOINT RightShoulder
        {
          OFFSET -7.550562 1.41573 9.438202
          CHANNELS 3 Zrotation Yrotation Xrotation
          JOINT RightArm
          {
            OFFSET -9.155056 0 4.247191
            CHANNELS 3 Zrotation Yrotation Xrotation
            JOINT RightForearm
            {
              OFFSET 0 0 -25.771955
              CHANNELS 3 Zrotation Yrotation Xrotation
              JOINT RightHand
              {
                OFFSET 0 0 -25.197169
                CHANNELS 3 Zrotation Yrotation Xrotation
              }
            }
          }
        }
        JOINT Neck
        {
          OFFSET 0 0 15.101124
          CHANNELS 3 Zrotation Yrotation Xrotation
          JOINT Head
          {
            OFFSET 0 0 11.325843
            CHANNELS 3 Zrotation Yrotation Xrotation
            End Site
            {
              OFFSET 0 0 14.157303
            }
          }
        }
      }
    }
  }
}
MOTION
Frames: 13
Frame Time: 0.0
0.0  89.887642  0.0  12.048543  35.689091  -79.510507  15.437294  -28.642454  11.244834  8.683172  16.882625  29.424466  -3.640869  3.366806  2.111512  -28.559571  15.608442  -58.171905  3.609608  6.075681  63.011044  2.936453  4.729596  0.827559  1.929289  -0.400324  1.018116  5.256099  -1.174402  2.749224  5.256099  -1.174402  2.749224  -21.674215  22.83764  6.188085  128.300426  47.601208  -162.533982  -21.18564  -7.35845  77.024414  54.043641  -1.336065  40.750681  -11.053119  0.799466  11.560796  -0.811607  65.572265  -24.688783  -36.974641  -9.55181  -88.977978  42.265553  -32.616049  -45.64246  -43.384683  -2.613388  -9.561287  -32.583358  -1.287385  -7.400531  
0.0  89.887642  0.0  11.648154  34.77516  -79.976044  15.63307  -28.539085  11.464344  8.630342  16.683522  29.4477  -3.469299  3.359792  2.529465  -27.818433  14.780727  -57.954841  4.201972  6.476696  63.037622  3.070418  4.705225  0.799232  1.793019  -0.431082  0.952032  4.883726  -1.247921  2.56897  4.883726  -1.247921  2.568969  -20.934289  23.126957  6.524576  129.097668  47.46787  -162.33622  -21.595635  -5.90482  76.965303  55.769546  -2.914212  40.297281  -9.984708  1.264877  12.640123  0.564463  64.847724  -23.732181  -36.687602  -9.26364  -89.612638  42.79617  -33.425625  -45.247115  -42.215152  -2.153879  -9.46385  -31.700187  -0.965582  -7.287913  
0.0  89.887642  0.0  11.449161  33.706874  -80.481864  15.954294  -28.29462  12.58741  8.396572  16.394928  28.785512  -3.379424  3.28122  2.804924  -26.804827  14.114995  -57.597277  4.86975  6.704449  63.124651  3.045395  4.675114  0.790974  1.715615  -0.40828  0.929174  4.673435  -1.181048  2.509624  4.673435  -1.181048  2.509624  -20.709704  23.125896  6.934395  130.244112  47.616674  -161.475722  -22.436536  -5.114812  78.270908  56.58493  -3.191201  39.254154  -9.245814  1.405319  13.413224  1.862178  64.458563  -23.009374  -35.826007  -9.935838  -90.192132  43.368266  -34.776347  -44.546162  -41.248383  -1.878098  -9.292439  -30.970759  -0.784135  -7.134719  
0.0  89.887642  0.0  11.387757  32.451152  -80.93199  15.998969  -27.803864  14.134458  8.510928  15.751017  28.214066  -3.33001  3.30653  2.740905  -25.637409  13.715796  -57.325344  5.300314  7.040196  63.240956  3.065402  4.490016  0.803723  1.668086  -0.328177  0.935991  4.546353  -0.960927  2.534572  4.546353  -0.960926  2.534571  -20.751316  22.747302  7.103953  131.732017  47.923802  -160.04349  -23.072238  -5.21601  80.140807  56.469731  -3.197225  37.841551  -8.587889  1.326723  13.874723  2.599906  64.380804  -22.951788  -34.355641  -11.532766  -90.771243  43.649913  -36.424623  -43.667647  -40.34567  -1.777611  -8.997681  -30.290951  -0.741687  -6.901365  
0.0  89.887642  0.0  11.243812  30.82685  -81.429621  16.113416  -27.377708  15.751895  8.959277  15.002424  27.707826  -3.234364  3.387279  2.719813  -24.041386  13.622062  -57.083287  5.212966  7.218855  63.416221  3.145592  4.455118  0.891016  1.622359  -0.252638  1.008361  4.423312  -0.757681  2.737996  4.423313  -0.757681  2.737996  -20.732352  22.232808  6.786376  133.723486  48.739847  -158.071138  -23.591413  -5.501116  82.348747  56.410036  -3.342984  36.042522  -7.710163  1.169609  13.489133  3.316908  64.724315  -23.079202  -32.550733  -13.562006  -91.383953  43.388572  -37.878075  -42.517613  -39.240334  -1.856053  -8.763545  -29.461603  -0.832244  -6.724708  
0.0  89.887642  0.0  11.004688  29.013695  -82.053536  16.355766  -27.190908  17.397473  9.36631  14.461432  27.11861  -3.016659  3.378804  2.814242  -22.152073  13.713815  -56.658785  4.741327  7.446225  63.506701  3.283556  4.364611  1.01891  1.560856  -0.206308  1.119542  4.255964  -0.635736  3.045464  4.255964  -0.635736  3.045464  -20.697466  21.668302  5.919304  136.334422  49.920731  -155.756006  -23.913774  -5.402718  84.909919  57.031327  -3.679265  33.743346  -6.758503  1.076817  12.53626  3.819423  65.467716  -23.672922  -30.719716  -15.397834  -92.069749  42.443347  -38.351141  -40.641287  -37.936336  -1.96435  -8.571687  -28.48375  -0.944509  -6.580665  
0.0  89.887642  0.0  10.661899  26.949132  -82.802334  16.687133  -27.031511  19.129596  9.88689  13.877127  26.480357  -2.728993  3.306509  2.954517  -20.108618  13.562652  -55.905679  4.510742  7.360581  63.44029  3.299901  4.313349  1.175943  1.59885  -0.129076  1.240157  4.362413  -0.434478  3.379655  4.362413  -0.434478  3.379655  -21.130603  20.62529  4.691916  139.540567  51.590801  -153.108488  -24.037902  -4.905551  87.723483  58.103288  -4.115062  30.901793  -6.33641  0.666288  11.168093  4.020842  66.462363  -24.788921  -29.363566  -16.347042  -92.757403  40.873275  -37.402353  -38.05171  -36.803665  -2.16063  -8.223587  -27.634529  -1.129301  -6.324772  
0.0  89.887642  0.0  10.216766  24.707834  -83.606899  16.863745  -26.688659  21.016932  10.733162  13.03909  25.748789  -2.392346  3.203008  3.086369  -18.175578  13.108419  -54.934366  4.439277  7.264537  63.041421  2.572059  4.211389  1.247419  1.680415  -0.058584  1.368753  4.588261  -0.255035  3.73522  4.58826  -0.255035  3.73522  -21.769407  19.352594  3.186395  143.911859  54.168104  -149.501761  -23.861835  -4.103587  90.504752  59.276953  -4.606006  27.557563  -6.180514  0.272937  9.543551  3.382662  67.589784  -27.121238  -28.980467  -15.947648  -93.335846  38.492065  -35.500211  -34.929226  -35.66403  -2.354126  -7.850269  -26.779746  -1.312158  -6.049155  
0.0  89.887642  0.0  9.741005  22.385572  -84.47732  16.701921  -26.070545  23.232092  12.097778  11.914703  24.92545  -2.130436  3.066834  3.196381  -16.174227  12.377771  -53.547866  4.625827  6.918617  62.412021  2.50391  4.268775  1.407726  1.753545  -0.012935  1.477727  4.790298  -0.142393  4.035845  4.790299  -0.142393  4.035846  -22.134916  18.076569  1.64122  149.340323  57.384732  -144.669954  -23.621482  -3.347076  93.072539  60.501448  -4.970925  23.847416  -6.020331  -0.03419  7.84413  1.542809  68.783831  -30.882457  -29.431009  -14.431603  -93.824012  35.373869  -33.403174  -31.263744  -34.39433  -2.36438  -7.420563  -25.8253  -1.360276  -5.719596  
0.0  89.887642  0.0  9.24834  20.172975  -85.339194  16.230911  -25.217245  25.587951  13.608668  10.65968  23.933838  -1.904298  2.903002  3.310304  -14.519829  11.321793  -51.873976  5.149805  6.565368  61.430974  2.549585  4.381788  1.656136  1.792613  0.003958  1.531865  4.897923  -0.102659  4.184852  4.897923  -0.102659  4.184852  -22.513814  17.002465  0.013002  155.67905  60.958325  -138.939831  -23.680009  -2.915945  95.260947  61.966335  -5.082781  19.902711  -5.785873  -0.321577  6.281905  -1.563006  69.989579  -36.136094  -30.305352  -12.233147  -94.242072  31.756417  -31.343893  -27.04742  -33.043749  -2.108902  -6.886646  -24.807506  -1.213102  -5.297113  
0.0  89.887642  0.0  8.761877  18.145306  -86.118209  15.638898  -24.114288  27.818853  14.770823  9.266172  22.791429  -1.654205  2.700539  3.56455  -13.000188  10.129702  -49.857197  5.872439  6.473107  60.067145  2.727919  4.497697  1.889303  1.768104  -0.028792  1.477778  4.829112  -0.186586  4.034781  4.829112  -0.186586  4.034781  -22.566629  16.348415  -1.430488  162.926188  64.584273  -132.241422  -24.146876  -2.93283  97.019108  63.431278  -4.779992  15.692451  -5.303936  -0.323596  5.057091  -5.467857  71.047651  -42.356998  -31.491195  -9.621616  -94.481908  27.812767  -29.504745  -22.623673  -31.557005  -1.460378  -6.14579  -23.684011  -0.780008  -4.699555  
0.0  89.887642  0.0  8.333524  16.454556  -86.784581  14.905307  -22.755214  29.81093  15.234678  7.707821  21.639431  -1.43744  2.405545  3.439276  -11.761241  9.056923  -48.124909  6.730728  6.485619  59.060006  2.930531  4.444996  1.965307  1.666058  -0.055226  1.384237  4.549146  -0.246119  3.777822  4.549146  -0.246119  3.777822  -22.62752  15.669752  -3.034272  171.473355  68.029827  -124.458339  -25.049944  -3.333994  98.267059  64.684169  -3.738238  11.441205  -4.921048  -0.50553  3.597515  -8.037554  72.206487  -47.885967  -32.926244  -6.739722  -94.441556  23.986631  -27.836947  -17.875592  -29.98513  -0.765648  -5.316631  -22.497217  -0.313931  -4.036605  
0.0  89.887642  0.0  7.88785  15.043711  -87.321777  13.909936  -21.280246  31.487516  14.872294  6.084127  20.452223  -0.335728  2.482019  3.633752  -10.766037  7.891474  -46.757871  7.82205  6.607029  58.282288  3.218276  4.30844  2.139323  1.500897  -0.083203  1.284557  4.09683  -0.306932  3.504514  4.09683  -0.306932  3.504514  -22.607279  14.630019  -4.452531  -177.206785  70.750217  -113.967724  -26.15649  -3.972026  98.939946  65.664265  -1.986184  7.403131  -3.752734  -0.746907  1.773695  -10.627304  73.486814  -53.008514  -34.418079  -3.792952  -93.976657  20.339236  -26.310477  -12.99981  -28.328324  -0.14813  -4.475278  -21.248695  0.096866  -3.371956  
